<?xml version="1.0" encoding="utf-8"?>
<!-- Generator: Adobe Illustrator 25.3.1, SVG Export Plug-In . SVG Version: 6.00 Build 0)  -->
<svg version="1.1" id="Layer_1" xmlns="http://www.w3.org/2000/svg" xmlns:xlink="http://www.w3.org/1999/xlink" x="0px" y="0px"
	 viewBox="0 0 541.43 610.34" style="enable-background:new 0 0 541.43 610.34;" xml:space="preserve">
<style type="text/css">
	.st0{fill:#F1F2F2;}
	.st1{fill:none;}
	.st2{font-family:'UbuntuMono-Regular';}
	.st3{font-size:48px;}
	.st4{letter-spacing:-2;}
	.st5{fill:#FFFFFF;stroke:#000000;stroke-width:3;stroke-miterlimit:10;}
	.st6{fill:none;stroke:#000000;stroke-width:3;stroke-miterlimit:10;stroke-dasharray:12;}
	.st7{font-size:21.4637px;}
	.st8{fill:none;stroke:#000000;stroke-width:3;stroke-miterlimit:10;}
	.st9{fill:#FFFFFF;stroke:#000000;stroke-width:3;stroke-linecap:round;stroke-miterlimit:10;}
	.st10{font-family:'UbuntuMono-Bold';}
	.st11{font-size:18.7807px;}
	.st12{font-size:28.6182px;}
</style>
<rect x="404.22" y="338.02" class="st0" width="15.17" height="45.37"/>
<rect x="142.21" y="338.02" class="st0" width="15.17" height="45.37"/>
<rect x="142.21" y="201.77" class="st0" width="15.17" height="45.37"/>
<rect x="264.78" y="139.83" transform="matrix(6.123234e-17 -1 1 6.123234e-17 108.8405 435.8878)" class="st0" width="15.17" height="47.39"/>
<path class="st0" d="M261.12,353.02H53.3c-1.31,0-2.37-1.06-2.37-2.37V265.3c0-1.31,1.06-2.37,2.37-2.37h207.82
	c1.31,0,2.37,1.06,2.37,2.37v85.35C263.5,351.96,262.44,353.02,261.12,353.02z"/>
<path class="st0" d="M518.7,592.23H53.3c-1.31,0-2.37-1.06-2.37-2.37V400.77c0-1.31,1.06-2.37,2.37-2.37h465.4
	c1.31,0,2.37,1.06,2.37,2.37v189.09C521.07,591.17,520.01,592.23,518.7,592.23z"/>
<rect x="161.39" y="30.06" class="st1" width="222.45" height="33.89"/>
<text transform="matrix(1 0 0 1 161.3874 63.3249)"><tspan x="0" y="0" class="st2 st3">Calico D</tspan><tspan x="192" y="0" class="st2 st3 st4">B</tspan></text>
<path class="st5" d="M503.71,577.23H38.3c-1.31,0-2.37-1.06-2.37-2.37V385.77c0-1.31,1.06-2.37,2.37-2.37h465.4
	c1.31,0,2.37,1.06,2.37,2.37v189.09C506.08,576.17,505.02,577.23,503.71,577.23z"/>
<path class="st5" d="M246.12,338.02H38.3c-1.31,0-2.37-1.06-2.37-2.37V250.3c0-1.31,1.06-2.37,2.37-2.37h207.82
	c1.31,0,2.37,1.06,2.37,2.37v85.35C248.5,336.96,247.44,338.02,246.12,338.02z"/>
<path class="st0" d="M261.3,215.98H53.47c-1.31,0-2.37-1.06-2.37-2.37v-85.35c0-1.31,1.06-2.37,2.37-2.37H261.3
	c1.31,0,2.37,1.06,2.37,2.37v85.35C263.67,214.92,262.61,215.98,261.3,215.98z"/>
<path class="st0" d="M475.69,215.98H353.22c-24.88,0-45.05-20.17-45.05-45.05v0c0-24.88,20.17-45.05,45.05-45.05h122.48
	c24.88,0,45.05,20.17,45.05,45.05v0C520.74,195.82,500.57,215.98,475.69,215.98z"/>
<path class="st6" d="M554.82,60.07"/>
<path class="st0" d="M518.71,353.02H310.2c-1.31,0-2.37-1.06-2.37-2.37V265.3c0-1.31,1.06-2.37,2.37-2.37h208.5
	c1.31,0,2.37,1.06,2.37,2.37v85.35C521.08,351.96,520.02,353.02,518.71,353.02z"/>
<g>
	<rect x="77.09" y="540.09" class="st1" width="54.39" height="20.43"/>
	<text transform="matrix(1 0 0 1 77.0945 554.9644)" class="st2 st7">data</text>
	<rect x="198.05" y="540.09" class="st1" width="32.9" height="20.43"/>
	<text transform="matrix(1 0 0 1 198.0495 554.9644)" class="st2 st7">log</text>
	<rect x="306.59" y="538.67" class="st1" width="39.39" height="23.26"/>
	<text transform="matrix(1 0 0 1 306.5935 553.5474)" class="st2 st7">wal</text>
	<text transform="matrix(0.583 0 0 0.583 338.7878 560.6948)" class="st2 st7">1</text>
	<rect x="418.38" y="537.38" class="st1" width="39.39" height="25.84"/>
	<text transform="matrix(1 0 0 1 418.3845 552.2563)" class="st2 st7">wal</text>
	<text transform="matrix(0.583 0 0 0.583 450.5788 559.4038)" class="st2 st7">N</text>
	<g>
		<path class="st5" d="M360.01,477.5v52.51c0,0.71-0.58,1.29-1.29,1.29h-65.01c-0.71,0-1.29-0.58-1.29-1.29v-76.16
			c0-0.71,0.58-1.29,1.29-1.29h41.36c0.34,0,0.67,0.14,0.91,0.38l23.65,23.65C359.87,476.83,360.01,477.15,360.01,477.5z"/>
		<path class="st8" d="M360.01,476.96h-23.93c-0.26,0-0.47-0.21-0.47-0.47l0-23.93"/>
		<line class="st9" x1="306.64" y1="484.13" x2="345.95" y2="484.13"/>
		<line class="st9" x1="306.64" y1="497.2" x2="345.95" y2="497.2"/>
		<line class="st9" x1="306.64" y1="510.27" x2="345.95" y2="510.27"/>
	</g>
	<g>
		<path class="st5" d="M471.8,477.5v52.51c0,0.71-0.58,1.29-1.29,1.29H405.5c-0.71,0-1.29-0.58-1.29-1.29v-76.16
			c0-0.71,0.58-1.29,1.29-1.29h41.36c0.34,0,0.67,0.14,0.91,0.38l23.65,23.65C471.66,476.83,471.8,477.15,471.8,477.5z"/>
		<path class="st8" d="M471.8,476.96h-23.93c-0.26,0-0.47-0.21-0.47-0.47v-23.93"/>
		<line class="st9" x1="418.43" y1="484.13" x2="457.74" y2="484.13"/>
		<line class="st9" x1="418.43" y1="497.2" x2="457.74" y2="497.2"/>
		<line class="st9" x1="418.43" y1="510.27" x2="457.74" y2="510.27"/>
	</g>
	<g>
		<path class="st5" d="M136.43,477.5v52.51c0,0.71-0.58,1.29-1.29,1.29H70.13c-0.71,0-1.29-0.58-1.29-1.29v-76.16
			c0-0.71,0.58-1.29,1.29-1.29h41.36c0.34,0,0.67,0.14,0.91,0.38l23.65,23.65C136.29,476.83,136.43,477.15,136.43,477.5z"/>
		<path class="st8" d="M136.43,476.96H112.5c-0.26,0-0.47-0.21-0.47-0.47v-23.93"/>
		<line class="st9" x1="83.06" y1="484.13" x2="122.37" y2="484.13"/>
		<line class="st9" x1="83.06" y1="497.2" x2="122.37" y2="497.2"/>
		<line class="st9" x1="83.06" y1="510.27" x2="122.37" y2="510.27"/>
	</g>
	<g>
		<path class="st5" d="M248.22,477.5v52.51c0,0.71-0.58,1.29-1.29,1.29h-65.01c-0.71,0-1.29-0.58-1.29-1.29v-76.16
			c0-0.71,0.58-1.29,1.29-1.29h41.36c0.34,0,0.67,0.14,0.91,0.38l23.65,23.65C248.08,476.83,248.22,477.15,248.22,477.5z"/>
		<path class="st8" d="M248.22,476.96h-23.93c-0.26,0-0.47-0.21-0.47-0.47l0-23.93"/>
		<line class="st9" x1="194.85" y1="484.13" x2="234.16" y2="484.13"/>
		<line class="st9" x1="194.85" y1="497.2" x2="234.16" y2="497.2"/>
		<line class="st9" x1="194.85" y1="510.27" x2="234.16" y2="510.27"/>
	</g>
	<rect x="368.01" y="485.51" class="st1" width="28.21" height="23.37"/>
	<text transform="matrix(1 0 0 1 368.0095 498.5483)" class="st10 st11">...</text>
</g>
<line class="st8" x1="142.21" y1="338.02" x2="142.21" y2="383.39"/>
<line class="st8" x1="142.21" y1="202.56" x2="142.21" y2="247.93"/>
<line class="st8" x1="404.22" y1="338.02" x2="404.22" y2="383.39"/>
<line class="st8" x1="248.5" y1="292.97" x2="292.43" y2="292.97"/>
<line class="st8" x1="248.5" y1="155.94" x2="292.43" y2="155.94"/>
<rect x="219.35" y="406.4" class="st1" width="106.52" height="28.31"/>
<text transform="matrix(1 0 0 1 219.3508 426.2358)" class="st2 st12">storage</text>
<rect x="105.74" y="278.82" class="st1" width="72.94" height="28.31"/>
<text transform="matrix(1 0 0 1 105.7434 298.6548)" class="st2 st12">pager</text>
<path class="st5" d="M246.3,200.98H38.47c-1.31,0-2.37-1.06-2.37-2.37v-85.35c0-1.31,1.06-2.37,2.37-2.37H246.3
	c1.31,0,2.37,1.06,2.37,2.37v85.35C248.67,199.92,247.61,200.98,246.3,200.98z"/>
<rect x="112.4" y="141.79" class="st1" width="59.98" height="28.31"/>
<text transform="matrix(1 0 0 1 112.3972 161.6177)" class="st2 st12">tree</text>
<path class="st5" d="M460.69,200.98H338.22c-24.88,0-45.05-20.17-45.05-45.05v0c0-24.88,20.17-45.05,45.05-45.05h122.48
	c24.88,0,45.05,20.17,45.05,45.05v0C505.74,180.82,485.57,200.98,460.69,200.98z"/>
<rect x="355.22" y="141.79" class="st1" width="88.47" height="28.31"/>
<text transform="matrix(1 0 0 1 355.2219 161.6177)" class="st2 st12">cursor</text>
<path class="st5" d="M503.71,338.02H295.2c-1.31,0-2.37-1.06-2.37-2.37V250.3c0-1.31,1.06-2.37,2.37-2.37h208.5
	c1.31,0,2.37,1.06,2.37,2.37v85.35C506.08,336.96,505.02,338.02,503.71,338.02z"/>
<rect x="382.04" y="278.82" class="st1" width="44.35" height="28.31"/>
<text transform="matrix(1 0 0 1 382.0407 298.6548)" class="st2 st12">wal</text>
</svg>
